<svg xmlns="http://www.w3.org/2000/svg" viewBox="0 0 420 520" role="img" aria-label="Dolce &amp; Gabbana Majolica Sarong">
<rect width="420" height="520" fill="#fbf8ef"/>
<rect x="24" y="24" width="372" height="472" fill="#fffdf7" stroke="#d6c49a" stroke-width="2"/>
<g transform="translate(0 18)"><path d="M122 110 C180 86 248 88 305 116 C284 178 278 254 300 326 C228 352 169 346 104 318 C136 248 145 176 122 110Z" fill="#f8f1df" stroke="#b9995a" stroke-width="5"/><path d="M137 130 C184 145 233 145 286 130" fill="none" stroke="#1f5d87" stroke-width="4"/><path d="M146 166 C190 185 240 184 278 166" fill="none" stroke="#1f5d87" stroke-width="4"/><circle cx="192" cy="220" r="16" fill="none" stroke="#1f5d87" stroke-width="4"/><circle cx="236" cy="244" r="13" fill="none" stroke="#b9995a" stroke-width="4"/></g>
<text x="210" y="426" text-anchor="middle" font-family="Georgia, 'Times New Roman', serif" font-size="24" fill="#2b241c">Majolica Sarong</text>
<text x="210" y="458" text-anchor="middle" font-family="Arial, sans-serif" font-size="14" letter-spacing="3" fill="#b9995a">DOLCE &amp; GABBANA</text>
</svg>